<svg width="25" height="24" viewBox="0 0 25 24" fill="none" xmlns="http://www.w3.org/2000/svg">
<path d="M7.42026 8.17038H5.54826V17.6444H7.42026V8.17038Z" fill="black" fill-opacity="0.5"/>
<path d="M16.1469 4.57928H4.41533V4.37857C4.41533 3.96436 4.07955 3.62857 3.66533 3.62857H0.851852V5.12857H2.91533L2.91533 20.6861H0.851852V22.1861H3.66533C4.07955 22.1861 4.41533 21.8504 4.41533 21.4361V21.2354H21.3071V9.22717L19.8071 10.7282V19.7354H4.41533L4.41533 6.07928H14.6615L16.1469 4.57928Z" fill="black"/>
<path d="M17.0868 5.42877L20.6775 1.81384V5.42877H23.3706L19.7798 9.05475V5.42877H17.0868Z" fill="black" fill-opacity="0.5"/>
<path d="M11.0328 16.5984C11.7183 17.1597 12.5634 17.53 13.4887 17.6288V14.1217L11.0328 16.5984Z" fill="black" fill-opacity="0.5"/>
<path d="M14.4887 17.6288C15.414 17.53 16.2592 17.1597 16.9446 16.5984L14.4887 14.1217V17.6288Z" fill="black" fill-opacity="0.5"/>
<path d="M17.6473 15.8868C18.1991 15.1954 18.5627 14.3443 18.6594 13.4129H15.1941L17.6473 15.8868Z" fill="black" fill-opacity="0.5"/>
<path d="M18.6851 12.9285C18.6851 12.9233 18.6852 12.9181 18.6852 12.9129C18.6852 12.9077 18.6851 12.9025 18.6851 12.8973V12.9285Z" fill="black" fill-opacity="0.5"/>
<path d="M18.6594 12.4129C18.5624 11.4788 18.197 10.6254 17.6424 9.93284L15.1832 12.4129H18.6594Z" fill="black" fill-opacity="0.5"/>
<path d="M16.9386 9.22238C16.2542 8.66386 15.4113 8.29552 14.4887 8.19693V11.693L16.9386 9.22238Z" fill="black" fill-opacity="0.5"/>
<path d="M13.4887 8.19693C12.5661 8.29553 11.7233 8.66387 11.0389 9.22239L13.4887 11.693V8.19693Z" fill="black" fill-opacity="0.5"/>
<path d="M10.3351 9.93285C9.78048 10.6254 9.41502 11.4788 9.3181 12.4129H12.7943L10.3351 9.93285Z" fill="black" fill-opacity="0.5"/>
<path d="M9.3181 13.4129C9.41474 14.3443 9.77833 15.1954 10.3302 15.8868L12.7833 13.4129H9.3181Z" fill="black" fill-opacity="0.5"/>
</svg>
