<svg width="32" height="32" viewBox="0 0 32 32" fill="none" xmlns="http://www.w3.org/2000/svg">
<rect width="32" height="32" rx="16" fill="#052B42"/>
<path fill-rule="evenodd" clip-rule="evenodd" d="M16.8508 8.23137L20.4822 10.4839C20.9351 10.7649 21.2106 11.2599 21.2106 11.7928V12.0019H21.6599C22.3129 12.0019 22.8792 12.4533 23.0248 13.0899L23.9696 17.2201C24.1106 17.8366 23.9663 18.4838 23.5768 18.982L20.2832 23.1951C19.8851 23.7043 19.2748 24.0019 18.6285 24.0019H13.395C12.7487 24.0019 12.1384 23.7043 11.7403 23.1951L8.44565 18.9807C8.05676 18.4832 7.9123 17.8372 8.05227 17.2215L8.99108 13.0917C9.136 12.4542 9.70274 12.0019 10.3565 12.0019H10.8148V11.7982C10.8148 11.2624 11.0933 10.765 11.5501 10.485L15.234 8.22705C15.7305 7.92277 16.356 7.92444 16.8508 8.23137ZM20.344 18.872L16.9918 20.9339C16.4098 21.2918 15.6765 21.2938 15.0926 20.9389L11.6897 18.8707C11.1464 18.5405 10.8148 17.9509 10.8148 17.3151L10.8148 12.0066L15.2041 14.714C15.6998 15.0198 16.3256 15.0198 16.8213 14.714L21.2106 12.0067V17.3215C21.2106 17.9538 20.8825 18.5407 20.344 18.872Z" fill="white"/>
</svg>
