<svg width="32" height="32" viewBox="0 0 32 32" fill="none" xmlns="http://www.w3.org/2000/svg">
<rect width="32" height="32" rx="16" fill="#052B42"/>
<path fill-rule="evenodd" clip-rule="evenodd" d="M13.5176 10.9996V8.98559C13.5176 8.44126 13.9588 8 14.5032 8C15.0475 8 15.4888 8.44126 15.4888 8.98559L15.4888 10.9996L13.5176 10.9996ZM13.5193 11.0001H12.9979C11.8934 11.0001 10.9979 11.8956 10.9979 13.0001V13.0371H8.9856C8.44127 13.0371 8 13.4784 8 14.0227C8 14.567 8.44127 15.0083 8.9856 15.0083L10.9979 15.0083V16.4971L8.9856 16.4971C8.44127 16.4971 8 16.9383 8 17.4826C8 18.027 8.44127 18.4682 8.9856 18.4682H11.0286C11.189 19.5845 11.9639 20.5022 12.9995 20.8675V23.0143C12.9995 23.5586 13.4408 23.9999 13.9851 23.9999C14.5294 23.9999 14.9707 23.5586 14.9707 23.0143L14.9707 21.0377H16.9702V23.0144C16.9702 23.5587 17.4115 24 17.9558 24C18.5001 24 18.9414 23.5587 18.9414 23.0144V21.0377H18.9999C20.1044 21.0377 20.9999 20.1423 20.9999 19.0377V18.4763H15.5193C14.4147 18.4763 13.5193 17.5809 13.5193 16.4763V11.0001ZM23.0144 13.001H21.0178V14.9722H23.0144C23.5587 14.9722 24 14.5309 24 13.9866C24 13.4422 23.5587 13.001 23.0144 13.001ZM23.0144 16.4971L21 16.4971V18.4682H23.0144C23.5587 18.4682 24 18.027 24 17.4826C24 16.9383 23.5587 16.4971 23.0144 16.4971ZM17.0254 11L17.0254 8.98561C17.0254 8.44128 17.4667 8.00002 18.011 8.00002C18.5553 8.00002 18.9966 8.44128 18.9966 8.98561V11L17.0254 11Z" fill="white"/>
</svg>
