<svg width="32" height="32" viewBox="0 0 32 32" fill="none" xmlns="http://www.w3.org/2000/svg">
<rect width="32" height="32" rx="16" fill="#052B42"/>
<path d="M11.3982 8C9.52143 8 8 9.52143 8 11.3982V13.6549C8 14.2072 8.44771 14.6549 9 14.6549H12.531V15.9292C12.531 16.7112 13.165 17.3451 13.9469 17.3451H19.469V18.6195C19.469 19.4015 18.835 20.0354 18.0531 20.0354H8.56637C8.25357 20.0354 8 20.289 8 20.6018C8 22.4786 9.52143 24 11.3982 24H20.6018C22.4786 24 24 22.4786 24 20.6018V18.3451C24 17.7928 23.5523 17.3451 23 17.3451H19.469V16.0708C19.469 15.2888 18.835 14.6549 18.0531 14.6549H12.531V13.3805C12.531 12.5985 13.165 11.9646 13.9469 11.9646H23.4336C23.7464 11.9646 24 11.711 24 11.3982C24 9.52143 22.4786 8 20.6018 8H11.3982Z" fill="white"/>
</svg>
