
<svg width="99" height="24" viewBox="0 0 99 24" fill="none" xmlns="http://www.w3.org/2000/svg">
<g id="Crusoe logo main">
<path id="Vector" d="M41.2718 14.6526C40.8671 17.7835 38.2709 20.0008 34.5841 20.0008C29.9841 20.0008 27.3633 16.8699 27.3633 11.9267C27.3633 6.98351 30.1766 4.00079 34.668 4.00079C38.2907 4.00079 40.7585 6.06993 41.2718 9.28474H38.3746C37.8021 7.13166 36.351 6.43042 34.6482 6.43042C32.3285 6.43042 30.5171 8.34647 30.5171 11.9267C30.5171 15.507 32.3285 17.5712 34.5446 17.5712C36.3757 17.5712 37.8662 16.7613 38.3795 14.6526H41.2767H41.2718Z" fill="#19201F"/>
<path id="Vector_2" d="M49.7 11.0976C49.2756 11.0334 48.9103 11.0334 48.4859 11.0334C47.0397 11.0334 46.0773 11.5667 46.0773 13.7198V19.7297H43.1406V8.263H46.0378V10.2679C46.6992 8.84078 47.7209 8.28769 49.0633 8.28769C49.2558 8.28769 49.5125 8.30745 49.7 8.33214V11.1025V11.0976Z" fill="#19201F"/>
<path id="Vector_3" d="M58.2645 18.2136C57.6031 19.384 56.3494 20.0013 54.9231 20.0013C52.1739 20.0013 51.0684 18.3173 51.0684 15.5074V8.263H54.005V14.8704C54.005 16.4062 54.237 17.6408 55.8806 17.6408C57.84 17.6408 58.2645 16.0408 58.2645 14.2334V8.26794H61.2011V19.7297H58.2645V18.2186V18.2136Z" fill="#19201F"/>
<path id="Vector_4" d="M70.2937 11.7129C70.0617 10.7549 69.2079 10.0734 67.8456 10.0734C66.7598 10.0734 65.9948 10.4784 65.9948 11.1796C65.9948 11.7969 66.4439 12.266 67.5298 12.4981L69.0647 12.8389C71.345 13.3524 73.2797 13.9253 73.2797 16.2907C73.2797 18.6561 70.9156 19.9994 68.3195 19.9994C65.5062 19.9994 63.3789 18.5524 63.1025 15.9302H65.9356C66.1034 17.0364 66.8733 17.871 68.4083 17.871C69.6866 17.871 70.4714 17.4018 70.4714 16.5722C70.4714 15.7426 69.5978 15.4018 68.5959 15.1648L66.8931 14.8043C64.7412 14.3549 63.3148 13.4611 63.3148 11.3722C63.3148 9.2833 65.5309 7.96478 67.9986 7.96478C70.4664 7.96478 72.643 9.07096 73.0478 11.7129H70.2986H70.2937Z" fill="#19201F"/>
<path id="Vector_5" d="M74.4404 14.0142C74.4404 9.98461 77.2932 8.00436 80.1904 8.00436C83.0876 8.00436 85.9404 9.98461 85.9404 14.0142C85.9404 18.0439 83.0876 19.9994 80.1904 19.9994C77.2932 19.9994 74.4404 18.0192 74.4404 14.0142ZM77.4215 14.0142C77.4215 16.4241 78.5715 17.6982 80.1904 17.6982C81.8093 17.6982 82.9593 16.4192 82.9593 14.0142C82.9593 11.6093 81.8093 10.3056 80.1904 10.3056C78.5715 10.3056 77.4215 11.6044 77.4215 14.0142Z" fill="#19201F"/>
<path id="Vector_6" d="M90.1571 14.8044C90.3249 16.7649 91.6477 17.7229 93.0543 17.7229C93.9723 17.7229 94.8657 17.4019 95.4629 16.3994H98.4884C97.8715 18.1031 96.2082 19.9994 93.079 19.9994C89.397 19.9994 87.2451 17.2488 87.2451 13.95C87.2451 10.6513 89.6093 8.00436 92.9951 8.00436C96.3809 8.00436 98.7253 10.755 98.6167 14.7994H90.1621L90.1571 14.8044ZM90.2015 12.7797H95.6307C95.5665 10.8389 94.2043 10.1575 92.9704 10.1575C91.8648 10.1575 90.4384 10.8389 90.2015 12.7797Z" fill="#19201F"/>
<path id="Vector_7" d="M9.84186 0L2.42527 6.58272C-0.805819 9.45185 -0.805819 14.5481 2.42527 17.4173L9.84186 24L17.2585 17.4173C20.4895 14.5481 20.4895 9.45185 17.2585 6.58272L9.84186 0Z" fill="url(#paint0_linear_426_3246)"/>
</g>
<defs>
<linearGradient id="paint0_linear_426_3246" x1="16.7611" y1="5.59514" x2="2.69484" y2="18.3009" gradientUnits="userSpaceOnUse">
<stop stop-color="#F4BF45"/>
<stop offset="0.35" stop-color="#E48047"/>
<stop offset="0.69" stop-color="#C73361"/>
<stop offset="1" stop-color="#A42F5F"/>
</linearGradient>
</defs>
</svg>
